<svg width="18" height="18" viewBox="0 0 18 18" fill="none" xmlns="http://www.w3.org/2000/svg">
<path fill-rule="evenodd" clip-rule="evenodd" d="M9.47434 1.61701C9.16644 1.51438 8.83356 1.51438 8.52566 1.61701L2.52566 3.61701C1.91314 3.82119 1.5 4.39439 1.5 5.04004V6.74947C1.5 7.5779 2.17157 8.24947 3 8.24947H3.75V11.9995H3C2.17157 11.9995 1.5 12.671 1.5 13.4995V14.9995C1.5 15.8279 2.17157 16.4995 3 16.4995H15C15.8284 16.4995 16.5 15.8279 16.5 14.9995V13.4995C16.5 12.671 15.8284 11.9995 15 11.9995H14.25V8.24947H15C15.8284 8.24947 16.5 7.5779 16.5 6.74947V5.04004C16.5 4.39439 16.0869 3.82119 15.4743 3.61701L9.47434 1.61701ZM12.75 11.9995V8.24947H11.25V11.9995H12.75ZM9.75 11.9995V8.24947H8.25V11.9995H9.75ZM6.75 11.9995V8.24947H5.25V11.9995H6.75ZM3 13.4995V14.9995H15V13.4995H3ZM3 6.74947L3 5.04004L9 3.04004L15 5.04004V6.74947H3Z" fill="#667185"/>
</svg>
