<svg width="18" height="18" viewBox="0 0 18 18" fill="none" xmlns="http://www.w3.org/2000/svg">
<path fill-rule="evenodd" clip-rule="evenodd" d="M6.75 1.5C6.75 1.08579 6.41421 0.75 6 0.75C5.58579 0.75 5.25 1.08579 5.25 1.5V2.25H4.5C2.84315 2.25 1.5 3.59315 1.5 5.25V13.5C1.5 15.1569 2.84315 16.5 4.5 16.5H11.25C11.6642 16.5 12 16.1642 12 15.75C12 15.3358 11.6642 15 11.25 15H4.5C3.67157 15 3 14.3284 3 13.5V7.125H15V11.25C15 11.6642 15.3358 12 15.75 12C16.1642 12 16.5 11.6642 16.5 11.25V5.25C16.5 3.59315 15.1569 2.25 13.5 2.25H12.75V1.5C12.75 1.08579 12.4142 0.75 12 0.75C11.5858 0.75 11.25 1.08579 11.25 1.5V2.25H6.75V1.5ZM12 4.5C11.5858 4.5 11.25 4.16421 11.25 3.75H6.75C6.75 4.16421 6.41421 4.5 6 4.5C5.58579 4.5 5.25 4.16421 5.25 3.75H4.5C3.67157 3.75 3 4.42157 3 5.25V5.625H15V5.25C15 4.42157 14.3284 3.75 13.5 3.75H12.75C12.75 4.16421 12.4142 4.5 12 4.5Z" fill="#667185"/>
<path d="M15.75 13.5C15.75 13.0858 15.4142 12.75 15 12.75C14.5858 12.75 14.25 13.0858 14.25 13.5V14.25H13.5C13.0858 14.25 12.75 14.5858 12.75 15C12.75 15.4142 13.0858 15.75 13.5 15.75H14.25V16.5C14.25 16.9142 14.5858 17.25 15 17.25C15.4142 17.25 15.75 16.9142 15.75 16.5V15.75H16.5C16.9142 15.75 17.25 15.4142 17.25 15C17.25 14.5858 16.9142 14.25 16.5 14.25H15.75V13.5Z" fill="#667185"/>
</svg>
