<svg width="60" height="80" viewBox="0 0 60 80" fill="none" xmlns="http://www.w3.org/2000/svg">
<path d="M45.0745 62.8201L32.4483 80L8.07673 50.7712C5.97574 48.2515 3.97179 45.6115 2.68501 42.5936C-7.06434 19.7287 11.0112 -4.52632 36.485 0.724185C67.6365 8.69316 65.6701 48.4346 41.1422 58.0594L26.0813 40.2589C35.7061 45.2265 44.1433 35.7049 40.5209 27.4254C34.9474 16.6374 21.2518 21.7022 21.142 31.1556C21.106 34.2567 23.1184 36.908 25.1233 39.2741L45.0745 62.8201Z" fill="white"/>
<path d="M45.0745 62.8201L32.4483 80L8.07673 50.7712C5.97574 48.2515 3.97179 45.6115 2.68501 42.5936C-7.06434 19.7287 11.0112 -4.52632 36.485 0.724185C67.6365 8.69316 65.6701 48.4346 41.1422 58.0594L26.0813 40.2589C35.7061 45.2265 44.1433 35.7049 40.5209 27.4254C34.9474 16.6374 21.2518 21.7022 21.142 31.1556C21.106 34.2567 23.1184 36.908 25.1233 39.2741L45.0745 62.8201Z" fill="url(#paint0_linear_926_89010)"/>
<path d="M25.7712 40.0509L41.1917 58.2657C72.9641 44.5011 61.8904 -9.52233 22.356 12.4198C34.3612 22.2501 40.1711 22.1406 41.1917 29.0806C42.7441 39.6369 32.6018 43.9837 25.7712 40.0509Z" fill="url(#paint1_linear_926_89010)"/>
<path d="M25.7712 40.0509L41.1917 58.2657C72.9641 44.5011 61.8904 -9.52233 22.356 12.4198C34.3612 22.2501 40.1711 22.1406 41.1917 29.0806C42.7441 39.6369 32.6018 43.9837 25.7712 40.0509Z" fill="url(#paint2_linear_926_89010)" fill-opacity="0.2"/>
<path d="M25.7712 40.0509L41.1917 58.2657C72.9641 44.5011 61.8904 -9.52233 22.356 12.4198C34.3612 22.2501 40.1711 22.1406 41.1917 29.0806C42.7441 39.6369 32.6018 43.9837 25.7712 40.0509Z" fill="url(#paint3_linear_926_89010)" fill-opacity="0.2"/>
<defs>
<linearGradient id="paint0_linear_926_89010" x1="4.5453" y1="48.8888" x2="88.4266" y2="36.7641" gradientUnits="userSpaceOnUse">
<stop stop-color="white"/>
<stop offset="0.610535" stop-color="white"/>
</linearGradient>
<linearGradient id="paint1_linear_926_89010" x1="35.4303" y1="56.6715" x2="51.5219" y2="41.5857" gradientUnits="userSpaceOnUse">
<stop offset="0.15" stop-color="#FFD1D1"/>
<stop offset="1" stop-color="white" stop-opacity="0"/>
</linearGradient>
<linearGradient id="paint2_linear_926_89010" x1="36.4361" y1="24.9913" x2="36.9295" y2="56.1686" gradientUnits="userSpaceOnUse">
<stop stop-opacity="0"/>
<stop offset="1"/>
</linearGradient>
<linearGradient id="paint3_linear_926_89010" x1="36.4361" y1="24.4884" x2="36.9295" y2="56.1686" gradientUnits="userSpaceOnUse">
<stop stop-opacity="0"/>
<stop offset="1"/>
</linearGradient>
</defs>
</svg>
