<svg width="18" height="18" viewBox="0 0 18 18" fill="none" xmlns="http://www.w3.org/2000/svg">
<path fill-rule="evenodd" clip-rule="evenodd" d="M10.5003 2.24951C8.01506 2.24951 6.00035 4.26423 6.00035 6.74951C6.00035 9.23479 8.01506 11.2495 10.5003 11.2495C12.9856 11.2495 15.0003 9.23479 15.0003 6.74951C15.0003 4.26423 12.9856 2.24951 10.5003 2.24951ZM7.50035 6.74951C7.50035 5.09266 8.84349 3.74951 10.5003 3.74951C12.1572 3.74951 13.5003 5.09266 13.5003 6.74951C13.5003 8.40637 12.1572 9.74951 10.5003 9.74951C8.84349 9.74951 7.50035 8.40637 7.50035 6.74951Z" fill="#667185"/>
<path d="M6.1169 15.3949C5.89852 15.7469 5.43616 15.8552 5.08419 15.6368C4.73222 15.4184 4.62392 14.9561 4.84229 14.6041C5.86934 12.9487 7.97044 11.2495 10.5003 11.2495C13.0303 11.2495 15.1314 12.9487 16.1584 14.6041C16.3768 14.9561 16.2685 15.4184 15.9165 15.6368C15.5645 15.8552 15.1022 15.7469 14.8838 15.3949C14.0422 14.0384 12.3636 12.7495 10.5004 12.7495C8.6371 12.7495 6.95851 14.0384 6.1169 15.3949Z" fill="#667185"/>
<path d="M5.92374 4.9193C6.10611 5.2912 5.95246 5.74053 5.58056 5.92291C4.89906 6.25709 4.50035 6.86336 4.50035 7.49951C4.50035 8.13567 4.89906 8.74193 5.58056 9.07612C5.95246 9.25849 6.10611 9.70782 5.92374 10.0797C5.74137 10.4516 5.29204 10.6053 4.92013 10.4229C3.81253 9.87977 3.00035 8.79966 3.00035 7.49951C3.00035 6.19936 3.81253 5.11926 4.92013 4.57612C5.29204 4.39375 5.74137 4.54739 5.92374 4.9193Z" fill="#667185"/>
<path d="M3.1169 15.3949C2.89852 15.7469 2.43616 15.8552 2.08419 15.6368C1.73222 15.4184 1.62392 14.9561 1.84229 14.6041C2.27661 13.9041 2.97151 13.3198 3.74677 12.8665C4.10434 12.6574 4.56371 12.7777 4.77279 13.1353C4.98188 13.4929 4.86151 13.9523 4.50394 14.1613C3.85616 14.5401 3.37956 14.9716 3.1169 15.3949Z" fill="#667185"/>
</svg>
